<?xml version="1.0" standalone="no"?>
<!DOCTYPE svg PUBLIC "-//W3C//DTD SVG 20010904//EN"
 "http://www.w3.org/TR/2001/REC-SVG-20010904/DTD/svg10.dtd">
<svg version="1.0" xmlns="http://www.w3.org/2000/svg"
 width="512.000000pt" height="512.000000pt" viewBox="0 0 512.000000 512.000000"
 preserveAspectRatio="xMidYMid meet">
<metadata>
Created by potrace 1.11, written by Peter Selinger 2001-2013
</metadata>
<g transform="translate(0.000000,512.000000) scale(0.100000,-0.100000)"
fill="#000000" stroke="none">
<path d="M3567 5003 c-67 -65 -126 -122 -132 -128 -86 -80 -73 -163 43 -267
46 -42 46 -42 -48 -28 -36 5 -92 12 -125 15 -33 4 -71 8 -85 10 -14 2 -52 7
-85 11 -33 3 -69 8 -80 10 -131 25 -250 11 -352 -39 -70 -34 -92 -54 -288
-263 -77 -81 -186 -196 -242 -254 -56 -58 -116 -121 -135 -140 l-33 -35 -240
-1 c-263 0 -288 -5 -330 -62 -19 -26 -20 -47 -25 -767 l-5 -740 -276 0 c-276
-1 -277 -1 -312 -25 -39 -27 -34 -17 -183 -363 -53 -122 -105 -242 -115 -266
-19 -42 -19 -74 -17 -801 l3 -757 27 -35 c56 -74 -117 -68 1972 -68 2010 0
1912 -2 1965 47 50 46 49 37 47 838 l-1 750 -33 75 c-18 41 -37 84 -42 95 -6
11 -48 111 -94 222 -46 112 -91 214 -100 228 -36 55 -56 59 -358 59 l-278 1 0
620 0 620 133 136 c72 75 169 174 214 221 45 47 87 89 93 93 7 4 32 -14 62
-46 28 -30 62 -62 77 -71 31 -22 92 -23 129 -4 40 21 302 291 303 312 1 11 3
29 4 41 3 33 -22 77 -73 126 -26 25 -198 197 -382 382 -184 186 -344 344 -355
351 -11 8 -44 14 -74 14 l-54 0 -120 -117z"/>
</g>
</svg>
